<svg width="200" height="200" viewBox="0 0 200 200" xmlns="http://www.w3.org/2000/svg">
  <defs>
    <linearGradient id="gradient" x1="0%" y1="0%" x2="100%" y2="0%">
      <stop offset="0%" style="stop-color:rgb(0,123,255);stop-opacity:1" />
      <stop offset="100%" style="stop-color:rgb(67,160,71);stop-opacity:1" />
    </linearGradient>
  </defs>

  <path d="M20 100 C40 80, 60 120, 80 100 C100 80, 120 120, 140 100 C160 80, 180 120, 200 100" stroke="url(#gradient)" stroke-width="6" fill="none" />

  <path d="M100 180 L100 120 A20 20 0 0 1 120 100 A20 20 0 0 1 100 80 A20 20 0 0 1 80 100 A20 20 0 0 1 100 120 Z" fill="rgb(255,0,0)" />

  <rect x="160" y="20" width="20" height="10" fill="rgb(0,0,0)" />
  <rect x="160" y="40" width="20" height="10" fill="rgb(0,0,0)" />

</svg>